<svg width="20" height="20" viewBox="0 0 20 20" fill="none" xmlns="http://www.w3.org/2000/svg">
<circle cx="10" cy="10" r="7.5" stroke="#616161" stroke-width="1.5"/>
<path d="M10.0001 5C9.84144 4.99986 9.68445 5.03282 9.53921 5.09678C9.39396 5.16073 9.26366 5.25428 9.15661 5.37145C9.04956 5.48861 8.96813 5.62681 8.91751 5.77723C8.86689 5.92764 8.84821 6.08696 8.86264 6.245L9.31889 11.2525C9.33658 11.4209 9.41598 11.5767 9.54178 11.69C9.66757 11.8032 9.83086 11.8659 10.0001 11.8659C10.1694 11.8659 10.3327 11.8032 10.4585 11.69C10.5843 11.5767 10.6637 11.4209 10.6814 11.2525L11.1364 6.245C11.1508 6.08706 11.1322 5.92785 11.0816 5.77752C11.0311 5.62719 10.9498 5.48905 10.8428 5.37191C10.7359 5.25476 10.6058 5.16119 10.4607 5.09716C10.3156 5.03312 10.1587 5.00003 10.0001 5ZM10.0001 15C10.2654 15 10.5197 14.8946 10.7072 14.7071C10.8948 14.5196 11.0001 14.2652 11.0001 14C11.0001 13.7348 10.8948 13.4804 10.7072 13.2929C10.5197 13.1054 10.2654 13 10.0001 13C9.73492 13 9.48057 13.1054 9.29303 13.2929C9.1055 13.4804 9.00014 13.7348 9.00014 14C9.00014 14.2652 9.1055 14.5196 9.29303 14.7071C9.48057 14.8946 9.73492 15 10.0001 15Z" fill="#616161"/>
</svg>
